<?xml version="1.0" encoding="utf-8"?>
<!-- Generator: Adobe Illustrator 25.4.0, SVG Export Plug-In . SVG Version: 6.00 Build 0)  -->
<svg version="1.1" id="레이어_1" xmlns="http://www.w3.org/2000/svg" xmlns:xlink="http://www.w3.org/1999/xlink" x="0px"
	 y="0px" viewBox="0 0 391.57 134.54" style="enable-background:new 0 0 391.57 134.54;" xml:space="preserve">
<style type="text/css">
	.st0{fill:#221E1F;}
</style>
<g>
	<path class="st0" d="M75.3,42.44H44.92v-9.32c0-4.35-0.39-7.12-1.17-8.31c-0.78-1.19-2.07-1.79-3.88-1.79
		c-1.97,0-3.46,0.8-4.47,2.41c-1.01,1.61-1.52,4.05-1.52,7.31c0,4.2,0.57,7.36,1.7,9.49c1.08,2.12,4.16,4.69,9.25,7.69
		c14.56,8.64,23.73,15.73,27.51,21.28c3.78,5.54,5.67,14.48,5.67,26.81c0,8.96-1.05,15.57-3.15,19.81
		c-2.1,4.25-6.15,7.81-12.16,10.68c-6.01,2.87-13,4.31-20.98,4.31c-8.75,0-16.23-1.66-22.42-4.97c-6.19-3.32-10.24-7.54-12.16-12.67
		s-2.87-12.41-2.87-21.83V85.1h30.38v15.31c0,4.71,0.43,7.74,1.28,9.09c0.85,1.35,2.37,2.02,4.55,2.02s3.79-0.85,4.86-2.56
		c1.06-1.71,1.59-4.25,1.59-7.61c0-7.41-1.01-12.25-3.03-14.53c-2.07-2.28-7.17-6.09-15.31-11.42c-8.13-5.39-13.52-9.3-16.16-11.73
		c-2.64-2.43-4.83-5.8-6.57-10.1s-2.6-9.79-2.6-16.47c0-9.63,1.23-16.68,3.69-21.13S13.4,8.01,18.89,5.5s12.12-3.77,19.89-3.77
		c8.5,0,15.73,1.37,21.72,4.12s9.95,6.2,11.89,10.37c1.94,4.17,2.91,11.25,2.91,21.25V42.44z"/>
	<path class="st0" d="M175.42,4.37v125.8h-32.71V77.33h-9.79v52.84h-32.71V4.37h32.71v44.99h9.79V4.37H175.42z"/>
	<path class="st0" d="M233.2,4.37v125.8h-32.71V4.37H233.2z"/>
	<path class="st0" d="M336.24,4.37l-18.76,56.8l20.55,69h-33.8l-13.25-53.92v53.92h-32.71V4.37h32.71v48.87l14.57-48.87H336.24z"/>
	<path class="st0" d="M388.3,4.37v125.8h-32.71V4.37H388.3z"/>
</g>
</svg>
